# xmcd
#
# Track frame offsets:
#	150
#	11220
#	29117
#	46055
#	61235
#	74157
#
# Disc length: 1227 seconds
#
# Revision: 0
# Processed by: cddbd v1.5.2PL0 Copyright (c) Steve Scherf et al.
# Submitted via: dBpowerAMP V4.0
#
DISCID=5604c906
DTITLE=Vern Gosdin - Six Great Hits
DYEAR=1997
DGENRE=Country
TTITLE0=Set 'em Up Joe
TTITLE1=It's Not Over Yet
TTITLE2=Take Me Home To Alabama
TTITLE3=The Garden
TTITLE4=Who You Gonna Blame It On This Time
TTITLE5=That Just About Does It
EXTD=Six Pack Greatest Hits from Sony Music
EXTT0=
EXTT1=
EXTT2=
EXTT3=
EXTT4=
EXTT5=
PLAYORDER=
